<svg t="1712237601869" class="icon" viewBox="0 0 1024 1024" version="1.1" xmlns="http://www.w3.org/2000/svg" p-id="1485" width="64" height="64"><path d="M522.565125 723.172537l371.608529-195.986673 0 0 5.129834-2.835581c2.275833-1.137916 4.551666-2.854001 5.691629-5.130857 1.136893-2.276856 2.275833-4.551666 2.275833-7.405667 0-2.276856-1.137916-5.130857-2.275833-6.827499-1.13894-2.276856-3.415796-4.572132-5.691629-5.711072l-5.129834-2.27481 0-0.578168L807.105646 450.861548 541.910729 590.432327l-4.551666 2.27481 0-0.577145c-3.413749 1.717108-6.827499 2.854001-10.80202 3.992941-4.571109 1.136893-9.682523 1.717108-15.372106 1.717108-5.120624 0-10.242272-0.579191-15.361873-1.717108-3.983731-1.13894-7.407714-2.276856-10.821463-3.992941l0 0.577145-4.552689-2.27481L215.255017 450.861548l-87.065961 45.559639 0.568958 0.578168-5.689582 2.27481c-2.276856 1.13894-3.983731 3.434216-5.691629 5.711072-1.136893 1.697665-1.706875 4.551666-1.706875 6.827499 0 2.854001 0.569982 5.129834 1.706875 7.405667l0 0c1.707898 2.276856 3.414773 3.992941 5.691629 5.130857l5.689582 2.835581 0 0 371.048781 195.986673 0.568958-0.577145 4.551666 2.854001c1.137916 0.558725 2.276856 1.136893 3.413749 1.136893l0 0c0.568958 0.559748 1.706875 0.559748 2.844791 0.559748s2.276856 0 3.414773-0.559748l0 0c1.136893 0 2.275833-0.578168 3.413749-1.136893l4.551666-2.854001L522.566148 723.172537zM899.302465 680.449503l-5.129834-2.855024 0 0-87.068008-46.155203L541.910729 771.026428l-4.551666 2.835581 0-0.559748c-3.413749 1.718131-6.827499 2.855024-10.80202 3.413749-4.571109 1.717108-9.682523 2.276856-15.372106 2.276856-5.120624 0-10.242272-0.559748-15.361873-2.276856-3.983731-0.558725-7.407714-2.27481-10.821463-3.413749l0 0-4.552689-2.276856L215.255017 631.439276l-87.065961 46.155203 0.568958 0-5.689582 2.855024c-2.276856 1.137916-3.983731 2.835581-5.691629 5.111414-1.136893 2.276856-1.706875 4.572132-1.706875 7.404644 0 2.278903 0.569982 5.132904 1.706875 6.848988l0 0c1.707898 2.27481 3.414773 3.990894 5.691629 5.690606l5.689582 2.854001 0 0 371.048781 195.408505 0.568958 0 4.551666 2.835581c1.137916 0.579191 2.276856 0.579191 3.413749 1.136893l0 0c0.568958 0 1.706875 0.578168 2.844791 0.578168s2.276856-0.578168 3.414773-0.578168l0 0c1.136893-0.557702 2.275833-0.557702 3.413749-1.136893l4.551666-2.835581 0 0 371.608529-195.408505-0.559748 0 5.689582-2.854001c2.275833-1.698688 4.551666-3.415796 5.691629-5.690606l0 0c1.136893-1.717108 2.275833-4.571109 2.275833-6.848988 0-2.833535-1.137916-5.128811-2.275833-7.404644C903.855154 683.285085 901.578298 681.588443 899.302465 680.449503L899.302465 680.449503zM123.067408 343.755158l5.689582 2.834558 0 0 371.048781 195.409528 0.568958 0 4.551666 2.854001c1.137916 0.559748 2.276856 0.559748 3.413749 1.13894l0 0c0.568958 0 1.706875 0.578168 2.844791 0.578168s2.276856-0.578168 3.414773-0.578168l0 0c1.136893-0.579191 2.275833-0.579191 3.413749-1.13894l4.551666-2.854001 0 0 371.608529-195.409528-0.559748 0 5.689582-2.834558c2.275833-1.717108 4.551666-3.414773 5.691629-5.690606l0 0c1.136893-1.716084 2.275833-4.571109 2.275833-6.847965 0-2.834558-1.137916-5.129834-2.275833-7.40669-1.13894-2.275833-3.415796-3.991917-5.691629-5.129834l-5.129834-2.835581 0 0L522.565125 119.855762l0 0.559748-4.551666-2.834558c-1.137916-0.558725-2.276856-1.137916-3.413749-1.717108l0 0c-1.137916 0-2.276856 0-3.414773 0s-2.276856 0-2.844791 0l0 0c-1.136893 0.578168-2.275833 1.157359-3.413749 1.717108l-5.120624 2.834558 0-0.559748L128.189056 315.844481l0.568958 0-5.689582 2.835581c-2.276856 1.137916-3.983731 2.854001-5.691629 5.129834-1.136893 2.276856-1.706875 4.572132-1.706875 7.40669 0 2.276856 0.569982 5.131881 1.706875 6.847965l0 0C119.084701 340.339362 120.791575 342.037027 123.067408 343.755158L123.067408 343.755158zM949.374884 478.193033c5.691629 9.701966 9.104355 21.081131 9.104355 33.619702 0 12.536524-3.413749 23.916712-9.104355 34.178427-5.110391 8.544607-12.516058 15.391549-21.061688 21.081131l0.578168 0.559748-5.690606 2.855024-60.892859 31.902594 60.892859 31.902594 5.690606 2.855024-0.578168 0.559748c8.54563 5.709025 15.951297 12.536524 21.061688 21.082154 5.691629 10.260691 9.104355 21.661346 9.104355 34.177404 0 11.979846-3.413749 23.938202-9.104355 33.619702-5.110391 8.54563-12.516058 15.953344-21.061688 21.083178l0.578168 0.559748-5.690606 2.854001-381.290029 201.100134-4.551666 2.276856 0-0.559748c-3.413749 1.696642-6.827499 2.854001-10.80202 3.993964-4.571109 1.13587-9.682523 1.695618-15.372106 1.695618-5.120624 0-10.242272-0.559748-15.361873-1.695618-3.983731-1.139963-7.407714-2.297322-10.821463-3.993964l0 0.559748-4.552689-2.276856-381.279796-201.100134-5.689582-2.854001 0-0.559748c-7.966439-5.710049-14.804171-12.537548-19.925818-21.083178-6.259564-9.682523-9.673313-21.639856-9.673313-33.619702 0-12.516058 3.412726-23.916712 9.673313-34.177404 5.120624-7.965415 11.95938-15.372106 19.925818-20.502963l0-0.578168 5.689582-3.414773 60.892859-31.902594-60.892859-31.902594-5.689582-3.414773 0-0.577145c-7.966439-5.111414-14.804171-12.518105-19.925818-20.502963-6.259564-10.261715-9.673313-21.641903-9.673313-34.178427 0-12.538571 3.412726-23.918759 9.673313-33.619702 5.120624-8.544607 11.95938-15.372106 19.925818-21.082154l0-0.559748 5.689582-2.854001 60.892859-32.462343-60.892859-31.902594-5.689582-2.855024 0-0.578168c-7.966439-5.689582-14.804171-12.537548-19.925818-21.062711-6.259564-9.6815-9.673313-21.660322-9.673313-33.619702 0-12.536524 3.412726-23.936155 9.673313-34.178427 5.120624-7.965415 11.95938-15.372106 19.925818-20.502963l0-0.578168 5.689582-3.414773L480.448912 72.001871l4.552689-2.276856 0 0c3.413749-1.137916 7.396457-2.854001 10.821463-3.433192 5.119601-1.696642 10.241248-2.275833 15.361873-2.275833 5.690606 0 10.80202 0.578168 15.372106 2.275833 3.974521 0.579191 7.388271 1.736551 10.242272 3.433192l0.559748-0.578168 4.551666 2.855024 381.290029 200.539362 5.690606 2.835581-0.578168 0.578168c8.54563 5.709025 15.951297 12.536524 21.061688 21.081131 5.691629 10.242272 9.104355 21.641903 9.104355 34.178427 0 11.95938-3.413749 23.938202-9.104355 33.619702-5.110391 8.526187-12.516058 15.931854-21.061688 21.062711l0.578168 0.578168-5.690606 2.855024-60.33311 31.902594 60.33311 32.462343 5.690606 2.854001-0.578168 0.559748C936.857802 462.242759 944.264493 469.648426 949.374884 478.193033L949.374884 478.193033z"  p-id="1486"></path></svg>